<svg xmlns="http://www.w3.org/2000/svg" width="1300" height="433" viewBox="0 0 1300 433">
    <g fill="none" fill-rule="evenodd">
        <path fill="#F9F9FF" d="M-55.052 128.045C222.316 56.682 487 27 739 39s455.08-5.235 609.237-51.705L1340 358c-265.924-99.806-513.358-143.692-742.302-131.658-228.944 12.035-458.255 101.156-687.935 267.363l35.185-365.66z"/>
        <path fill="#D9D9F0" d="M1.22 48.996c219.594-62.22 459.327-61.48 719.2 2.222 259.872 63.702 502.096 66.204 726.67 7.504l-50.028 315.87C1142.429 280.785 897.742 227.588 663 215c-234.742-12.588-480.106 53.505-736.09 198.278L1.22 48.996z" opacity=".199"/>
    </g>
</svg>
